<svg width="579" height="386" fill="none" xmlns="http://www.w3.org/2000/svg"><rect x=".5" y=".5" width="578" height="385" rx="26" fill="#777"/><rect x="2.5" y="2.5" width="574.23" height="381.865" rx="25" fill="url(#a)"/><rect opacity=".1" x="54.531" y="16.803" width="471.463" height="353.756" rx="5" fill="#2A2A2A"/><rect x="21.53" y="19.803" width="536" height="346" rx="8" fill="#E8EAF6"/><mask id="b" style="mask-type:luminance" maskUnits="userSpaceOnUse" x="21" y="19" width="537" height="347"><rect x="21.53" y="19.803" width="536" height="346" rx="8" fill="#fff"/></mask><g mask="url(#b)"><path fill="#5267DF" d="M18 20h547v59H18z"/><g fill="#fff"><circle opacity=".245" cx="60" cy="50" r="16"/><circle opacity=".104" cx="521" cy="50" r="16"/><rect opacity=".75" x="91" y="40" width="120" height="6" rx="3"/><rect opacity=".25" x="91" y="54" width="64" height="6" rx="3"/></g><rect x="78.531" y="112.803" width="261" height="316" rx="8" fill="#fff"/><rect x="373.53" y="112.803" width="128" height="316" rx="8" fill="#fff"/><rect opacity=".5" x="157" y="151" width="120" height="6" rx="3" fill="#242A45"/></g><circle cx="126" cy="161" r="16" fill="#F98E5D"/><rect opacity=".25" x="394" y="135" width="88" height="6" rx="3" fill="#242A45"/><rect opacity=".25" x="394" y="155" width="88" height="6" rx="3" fill="#242A45"/><rect opacity=".25" x="394" y="175" width="88" height="6" rx="3" fill="#242A45"/><rect opacity=".25" x="394" y="195" width="88" height="6" rx="3" fill="#242A45"/><rect opacity=".25" x="394" y="229" width="88" height="6" rx="3" fill="#242A45"/><rect opacity=".25" x="394" y="249" width="88" height="6" rx="3" fill="#242A45"/><rect opacity=".25" x="394" y="269" width="88" height="6" rx="3" fill="#242A45"/><rect opacity=".25" x="157" y="165" width="64" height="6" rx="3" fill="#242A45"/><circle cx="126" cy="217" r="16" fill="#6AC6D6"/><rect opacity=".5" x="157" y="207" width="120" height="6" rx="3" fill="#242A45"/><rect opacity=".25" x="157" y="221" width="64" height="6" rx="3" fill="#242A45"/><circle cx="126" cy="273" r="16" fill="#A47ED4"/><rect opacity=".5" x="157" y="263" width="120" height="6" rx="3" fill="#242A45"/><rect opacity=".25" x="157" y="277" width="64" height="6" rx="3" fill="#242A45"/><circle cx="126" cy="329" r="16" fill="#EC7878"/><rect opacity=".5" x="157" y="319" width="120" height="6" rx="3" fill="#242A45"/><rect opacity=".25" x="157" y="333" width="64" height="6" rx="3" fill="#242A45"/><defs><linearGradient id="a" x1="848.042" y1="196.406" x2="508.325" y2="-314.444" gradientUnits="userSpaceOnUse"><stop stop-color="#151515"/><stop offset="1" stop-color="#3D3D3D"/></linearGradient></defs></svg>